<svg width="174" height="60" viewBox="0 0 174 60" fill="none" xmlns="http://www.w3.org/2000/svg">
<path d="M161.402 43.8937H169.053V37.7471H165.137C162.668 37.7471 161.433 36.3088 161.433 33.4404V18.9731H167.695V12.8266H160.586L159.411 8.01807H153.696V35.6091C153.696 41.1368 156.264 43.8937 161.399 43.8937" fill="#FFB512"/>
<path d="M147.803 12.8293H140.066V43.8964H147.803V12.8293Z" fill="#FFB512"/>
<path d="M124.992 18.9731H134.17V12.8266H124.992C124.992 5.65981 131.335 5.12739 136.98 7.43269V1.27503C128.766 -1.85816 117.255 0.502876 117.255 11.4941V43.8908H124.992V18.9703V18.9731Z" fill="#FFB512"/>
<path d="M147.803 1.64014H140.066V8.02079H147.803V1.64014Z" fill="#FFB512"/>
<path d="M143.154 53.8535C131.784 53.8535 121.27 50.174 112.728 43.9411C112.484 43.7627 112.181 44.0665 112.361 44.3118C119.301 53.8229 130.51 60 143.154 60C155.798 60 167.006 53.8229 173.946 44.3118C174.124 44.0665 173.824 43.7627 173.58 43.9411C165.037 50.174 154.523 53.8535 143.154 53.8535" fill="#FFB512"/>
<g clip-path="url(#clip0_1_42)">
<path d="M96.1653 13.3923H100.117L100.925 16.8322H105.841V21.0804H101.511V30.859C101.511 32.841 102.367 33.8361 104.077 33.8361H105.844V38.0871H101.495C97.9427 38.0871 96.1681 36.1804 96.1681 32.3559V13.3923H96.1653ZM82.166 38.0843V16.8322H86.3039L86.9648 19.5416C88.8227 17.7381 90.7861 16.8322 92.855 16.8322V21.164C90.8639 21.164 89.0865 22.0616 87.5147 23.854V38.0843H82.166V38.0843ZM71.6214 29.3788C70.2717 29.1112 68.6332 28.9774 66.7003 28.9774C64.1315 28.9774 62.8457 29.7886 62.8457 31.4026C62.8457 33.0166 63.9205 33.8361 66.0727 33.8361C68.225 33.8361 70.1023 33.2814 71.6214 32.1775V29.3788V29.3788ZM57.5026 31.4639C57.5026 27.107 60.5657 24.9299 66.7003 24.9299C68.5388 24.9299 70.1828 25.0637 71.6214 25.3313V23.932C71.6214 22.0337 69.7829 21.0804 66.1116 21.0804C63.8038 21.0804 61.5016 21.4204 59.2188 22.095V17.8412C61.5016 17.1722 63.8038 16.8322 66.1116 16.8322C73.3487 16.8322 76.9617 19.1681 76.9617 23.8317V38.0843H74.2568L71.9574 36.5846C70.1189 37.5854 68.1583 38.0843 66.0727 38.0843C60.3602 38.0843 57.5026 35.8794 57.5026 31.4639M21.6725 38.0843V16.8322H25.8103L26.4407 19.5054C28.8707 17.7214 31.284 16.8322 33.6751 16.8322C36.3383 16.8322 38.2323 17.8022 39.3459 19.7479C42.048 17.8022 44.578 16.8322 46.9441 16.8322C51.4124 16.8322 53.6396 19.5221 53.6396 24.9076V38.0843H48.2937V24.7014C48.2937 22.3459 47.3023 21.164 45.3111 21.164C43.7199 21.164 42.0647 22.0839 40.329 23.9153V38.0871H34.9887V24.7655C34.9887 22.3682 34.0028 21.164 32.0422 21.164C30.3481 21.164 28.6763 22.0839 27.0267 23.9153V38.0871H21.6752L21.6725 38.0843ZM1.00531 37.0752V32.618C3.35751 33.5657 6.07907 34.0368 9.15609 34.0368C11.4528 34.0368 12.6052 33.2953 12.6052 31.8096C12.6052 30.4548 11.8277 29.7858 10.2836 29.7858H6.4512C2.1467 29.7886 0 27.6255 0 23.3076C0 18.9897 3.13812 16.6342 9.41714 16.6342C12.0804 16.6342 14.5881 17.0329 16.9403 17.8412V22.2957C14.5881 21.3507 12.0304 20.8797 9.27273 20.8797C6.51507 20.8797 4.94323 21.6184 4.94323 23.1041C4.94323 24.4505 5.7847 25.1279 7.46206 25.1279H10.8918C15.5934 25.1279 17.9428 27.2826 17.9428 31.5977C17.9428 35.9128 14.9463 38.2794 8.95614 38.2794C6.00686 38.2794 3.35473 37.8808 1.00253 37.0724" fill="white"/>
</g>
<defs>
<clipPath id="clip0_1_42">
<rect width="105.844" height="24.8927" fill="white" transform="translate(0 13.3923)"/>
</clipPath>
</defs>
</svg>
